G04 Layer_Physical_Order=2*
G04 Layer_Color=11436288*
%FSLAX43Y43*%
%MOMM*%
G71*
G01*
G75*
%ADD10C,1.000*%
%ADD11C,0.500*%
%ADD12C,2.000*%
%ADD13R,1.550X1.550*%
%ADD14C,1.550*%
%ADD15R,1.524X1.524*%
%ADD16C,1.524*%
%ADD17R,1.550X1.550*%
%ADD18C,1.473*%
%ADD19R,1.473X1.473*%
%ADD22C,1.600*%
%ADD23C,2.800*%
%ADD24C,1.650*%
%ADD25O,2.000X2.500*%
G04:AMPARAMS|DCode=26|XSize=2mm|YSize=2.5mm|CornerRadius=0.5mm|HoleSize=0mm|Usage=FLASHONLY|Rotation=0.000|XOffset=0mm|YOffset=0mm|HoleType=Round|Shape=RoundedRectangle|*
%AMROUNDEDRECTD26*
21,1,2.000,1.500,0,0,0.0*
21,1,1.000,2.500,0,0,0.0*
1,1,1.000,0.500,-0.750*
1,1,1.000,-0.500,-0.750*
1,1,1.000,-0.500,0.750*
1,1,1.000,0.500,0.750*
%
%ADD26ROUNDEDRECTD26*%
%ADD27C,1.651*%
%ADD28R,1.500X1.500*%
%ADD29C,1.500*%
G36*
X60000Y0D02*
X60000Y0D01*
X0D01*
X-0Y39873D01*
X127Y40000D01*
X60000D01*
Y0D01*
D02*
G37*
%LPC*%
G36*
X8127Y17110D02*
Y15587D01*
X9649D01*
X9630Y15784D01*
X9535Y16096D01*
X9382Y16383D01*
X9175Y16635D01*
X8923Y16842D01*
X8636Y16996D01*
X8324Y17090D01*
X8127Y17110D01*
D02*
G37*
G36*
X56873Y17573D02*
X55979D01*
X55997Y17431D01*
X56101Y17181D01*
X56266Y16966D01*
X56481Y16801D01*
X56731Y16697D01*
X56873Y16679D01*
Y17573D01*
D02*
G37*
G36*
X58021D02*
X57127D01*
Y16679D01*
X57269Y16697D01*
X57519Y16801D01*
X57734Y16966D01*
X57899Y17181D01*
X58002Y17431D01*
X58021Y17573D01*
D02*
G37*
G36*
X56873Y16181D02*
X56731Y16163D01*
X56481Y16059D01*
X56266Y15894D01*
X56101Y15679D01*
X55997Y15429D01*
X55979Y15287D01*
X56873D01*
Y16181D01*
D02*
G37*
G36*
X57127D02*
Y15287D01*
X58021D01*
X58002Y15429D01*
X57899Y15679D01*
X57734Y15894D01*
X57519Y16059D01*
X57269Y16163D01*
X57127Y16181D01*
D02*
G37*
G36*
X52000Y17481D02*
X51736Y17446D01*
X51490Y17344D01*
X51278Y17182D01*
X51116Y16970D01*
X51014Y16724D01*
X50979Y16460D01*
X51014Y16196D01*
X51116Y15950D01*
X51278Y15738D01*
X51490Y15576D01*
X51736Y15474D01*
X52000Y15439D01*
X52264Y15474D01*
X52510Y15576D01*
X52722Y15738D01*
X52884Y15950D01*
X52986Y16196D01*
X53021Y16460D01*
X52986Y16724D01*
X52884Y16970D01*
X52722Y17182D01*
X52510Y17344D01*
X52264Y17446D01*
X52000Y17481D01*
D02*
G37*
G36*
X17540Y22641D02*
X17276Y22606D01*
X17030Y22504D01*
X16818Y22342D01*
X16656Y22130D01*
X16554Y21884D01*
X16519Y21620D01*
X16554Y21356D01*
X16656Y21110D01*
X16818Y20898D01*
X17030Y20736D01*
X17276Y20634D01*
X17540Y20599D01*
X17804Y20634D01*
X18050Y20736D01*
X18262Y20898D01*
X18424Y21110D01*
X18526Y21356D01*
X18561Y21620D01*
X18526Y21884D01*
X18424Y22130D01*
X18262Y22342D01*
X18050Y22504D01*
X17804Y22606D01*
X17540Y22641D01*
D02*
G37*
G36*
X27700D02*
X27436Y22606D01*
X27190Y22504D01*
X26978Y22342D01*
X26816Y22130D01*
X26714Y21884D01*
X26679Y21620D01*
X26714Y21356D01*
X26816Y21110D01*
X26978Y20898D01*
X27190Y20736D01*
X27436Y20634D01*
X27700Y20599D01*
X27964Y20634D01*
X28210Y20736D01*
X28422Y20898D01*
X28584Y21110D01*
X28686Y21356D01*
X28721Y21620D01*
X28686Y21884D01*
X28584Y22130D01*
X28422Y22342D01*
X28210Y22504D01*
X27964Y22606D01*
X27700Y22641D01*
D02*
G37*
G36*
X32780D02*
X32516Y22606D01*
X32270Y22504D01*
X32058Y22342D01*
X31896Y22130D01*
X31794Y21884D01*
X31759Y21620D01*
X31794Y21356D01*
X31896Y21110D01*
X32058Y20898D01*
X32270Y20736D01*
X32516Y20634D01*
X32780Y20599D01*
X33044Y20634D01*
X33290Y20736D01*
X33502Y20898D01*
X33664Y21110D01*
X33766Y21356D01*
X33801Y21620D01*
X33766Y21884D01*
X33664Y22130D01*
X33502Y22342D01*
X33290Y22504D01*
X33044Y22606D01*
X32780Y22641D01*
D02*
G37*
G36*
X56873Y18721D02*
X56731Y18703D01*
X56481Y18599D01*
X56266Y18434D01*
X56101Y18219D01*
X55997Y17969D01*
X55979Y17827D01*
X56873D01*
Y18721D01*
D02*
G37*
G36*
X57127D02*
Y17827D01*
X58021D01*
X58002Y17969D01*
X57899Y18219D01*
X57734Y18434D01*
X57519Y18599D01*
X57269Y18703D01*
X57127Y18721D01*
D02*
G37*
G36*
X15000Y22641D02*
X14736Y22606D01*
X14490Y22504D01*
X14278Y22342D01*
X14116Y22130D01*
X14014Y21884D01*
X13979Y21620D01*
X14014Y21356D01*
X14116Y21110D01*
X14278Y20898D01*
X14490Y20736D01*
X14736Y20634D01*
X15000Y20599D01*
X15264Y20634D01*
X15510Y20736D01*
X15722Y20898D01*
X15884Y21110D01*
X15986Y21356D01*
X16021Y21620D01*
X15986Y21884D01*
X15884Y22130D01*
X15722Y22342D01*
X15510Y22504D01*
X15264Y22606D01*
X15000Y22641D01*
D02*
G37*
G36*
X4877Y3822D02*
Y2877D01*
X5822D01*
X5802Y3032D01*
X5693Y3294D01*
X5520Y3520D01*
X5294Y3693D01*
X5032Y3802D01*
X4877Y3822D01*
D02*
G37*
G36*
X4623Y9123D02*
X3678D01*
X3698Y8968D01*
X3807Y8706D01*
X3980Y8480D01*
X4206Y8307D01*
X4468Y8198D01*
X4623Y8178D01*
Y9123D01*
D02*
G37*
G36*
X5822D02*
X4877D01*
Y8178D01*
X5032Y8198D01*
X5294Y8307D01*
X5520Y8480D01*
X5693Y8706D01*
X5802Y8968D01*
X5822Y9123D01*
D02*
G37*
G36*
X4623Y2623D02*
X3678D01*
X3698Y2468D01*
X3807Y2206D01*
X3980Y1980D01*
X4206Y1807D01*
X4468Y1698D01*
X4623Y1678D01*
Y2623D01*
D02*
G37*
G36*
X31328Y2873D02*
X30207D01*
Y1752D01*
X30407Y1778D01*
X30712Y1905D01*
X30974Y2106D01*
X31175Y2368D01*
X31302Y2673D01*
X31328Y2873D01*
D02*
G37*
G36*
X4623Y3822D02*
X4468Y3802D01*
X4206Y3693D01*
X3980Y3520D01*
X3807Y3294D01*
X3698Y3032D01*
X3678Y2877D01*
X4623D01*
Y3822D01*
D02*
G37*
G36*
X45480Y15021D02*
X45216Y14986D01*
X44970Y14884D01*
X44758Y14722D01*
X44596Y14510D01*
X44494Y14264D01*
X44459Y14000D01*
X44494Y13736D01*
X44596Y13490D01*
X44758Y13278D01*
X44970Y13116D01*
X45216Y13014D01*
X45480Y12979D01*
X45744Y13014D01*
X45990Y13116D01*
X46202Y13278D01*
X46364Y13490D01*
X46466Y13736D01*
X46501Y14000D01*
X46466Y14264D01*
X46364Y14510D01*
X46202Y14722D01*
X45990Y14884D01*
X45744Y14986D01*
X45480Y15021D01*
D02*
G37*
G36*
X9649Y15333D02*
X8127D01*
Y13811D01*
X8324Y13830D01*
X8636Y13925D01*
X8923Y14078D01*
X9175Y14285D01*
X9382Y14537D01*
X9535Y14824D01*
X9630Y15136D01*
X9649Y15333D01*
D02*
G37*
G36*
X58021Y15033D02*
X57127D01*
Y14139D01*
X57269Y14157D01*
X57519Y14261D01*
X57734Y14426D01*
X57899Y14641D01*
X58002Y14891D01*
X58021Y15033D01*
D02*
G37*
G36*
X4623Y10322D02*
X4468Y10302D01*
X4206Y10193D01*
X3980Y10020D01*
X3807Y9794D01*
X3698Y9532D01*
X3678Y9377D01*
X4623D01*
Y10322D01*
D02*
G37*
G36*
X57000Y13654D02*
X56732Y13619D01*
X56483Y13515D01*
X56269Y13351D01*
X56105Y13137D01*
X56001Y12888D01*
X55966Y12620D01*
X56001Y12352D01*
X56105Y12103D01*
X56269Y11889D01*
X56483Y11725D01*
X56732Y11621D01*
X57000Y11586D01*
X57268Y11621D01*
X57517Y11725D01*
X57731Y11889D01*
X57895Y12103D01*
X57999Y12352D01*
X58034Y12620D01*
X57999Y12888D01*
X57895Y13137D01*
X57731Y13351D01*
X57517Y13515D01*
X57268Y13619D01*
X57000Y13654D01*
D02*
G37*
G36*
X42940Y15021D02*
X42676Y14986D01*
X42430Y14884D01*
X42218Y14722D01*
X42056Y14510D01*
X41954Y14264D01*
X41919Y14000D01*
X41954Y13736D01*
X42056Y13490D01*
X42218Y13278D01*
X42430Y13116D01*
X42676Y13014D01*
X42940Y12979D01*
X43204Y13014D01*
X43450Y13116D01*
X43662Y13278D01*
X43824Y13490D01*
X43926Y13736D01*
X43961Y14000D01*
X43926Y14264D01*
X43824Y14510D01*
X43662Y14722D01*
X43450Y14884D01*
X43204Y14986D01*
X42940Y15021D01*
D02*
G37*
G36*
X39080Y38034D02*
X38812Y37999D01*
X38563Y37895D01*
X38349Y37731D01*
X38185Y37517D01*
X38081Y37268D01*
X38046Y37000D01*
X38081Y36732D01*
X38185Y36483D01*
X38349Y36269D01*
X38563Y36105D01*
X38812Y36001D01*
X39080Y35966D01*
X39348Y36001D01*
X39597Y36105D01*
X39811Y36269D01*
X39975Y36483D01*
X40079Y36732D01*
X40114Y37000D01*
X40079Y37268D01*
X39975Y37517D01*
X39811Y37731D01*
X39597Y37895D01*
X39348Y37999D01*
X39080Y38034D01*
D02*
G37*
G36*
X41620D02*
X41352Y37999D01*
X41103Y37895D01*
X40889Y37731D01*
X40725Y37517D01*
X40621Y37268D01*
X40586Y37000D01*
X40621Y36732D01*
X40725Y36483D01*
X40889Y36269D01*
X41103Y36105D01*
X41352Y36001D01*
X41620Y35966D01*
X41888Y36001D01*
X42137Y36105D01*
X42351Y36269D01*
X42515Y36483D01*
X42619Y36732D01*
X42654Y37000D01*
X42619Y37268D01*
X42515Y37517D01*
X42351Y37731D01*
X42137Y37895D01*
X41888Y37999D01*
X41620Y38034D01*
D02*
G37*
G36*
X44160D02*
X43892Y37999D01*
X43643Y37895D01*
X43429Y37731D01*
X43265Y37517D01*
X43161Y37268D01*
X43126Y37000D01*
X43161Y36732D01*
X43265Y36483D01*
X43429Y36269D01*
X43643Y36105D01*
X43892Y36001D01*
X44160Y35966D01*
X44428Y36001D01*
X44677Y36105D01*
X44891Y36269D01*
X45055Y36483D01*
X45159Y36732D01*
X45194Y37000D01*
X45159Y37268D01*
X45055Y37517D01*
X44891Y37731D01*
X44677Y37895D01*
X44428Y37999D01*
X44160Y38034D01*
D02*
G37*
G36*
X14540D02*
X14272Y37999D01*
X14023Y37895D01*
X13809Y37731D01*
X13645Y37517D01*
X13541Y37268D01*
X13506Y37000D01*
X13541Y36732D01*
X13645Y36483D01*
X13809Y36269D01*
X14023Y36105D01*
X14272Y36001D01*
X14540Y35966D01*
X14808Y36001D01*
X15057Y36105D01*
X15271Y36269D01*
X15435Y36483D01*
X15539Y36732D01*
X15574Y37000D01*
X15539Y37268D01*
X15435Y37517D01*
X15271Y37731D01*
X15057Y37895D01*
X14808Y37999D01*
X14540Y38034D01*
D02*
G37*
G36*
X17080D02*
X16812Y37999D01*
X16563Y37895D01*
X16349Y37731D01*
X16185Y37517D01*
X16081Y37268D01*
X16046Y37000D01*
X16081Y36732D01*
X16185Y36483D01*
X16349Y36269D01*
X16563Y36105D01*
X16812Y36001D01*
X17080Y35966D01*
X17348Y36001D01*
X17597Y36105D01*
X17811Y36269D01*
X17975Y36483D01*
X18079Y36732D01*
X18114Y37000D01*
X18079Y37268D01*
X17975Y37517D01*
X17811Y37731D01*
X17597Y37895D01*
X17348Y37999D01*
X17080Y38034D01*
D02*
G37*
G36*
X19620D02*
X19352Y37999D01*
X19103Y37895D01*
X18889Y37731D01*
X18725Y37517D01*
X18621Y37268D01*
X18586Y37000D01*
X18621Y36732D01*
X18725Y36483D01*
X18889Y36269D01*
X19103Y36105D01*
X19352Y36001D01*
X19620Y35966D01*
X19888Y36001D01*
X20137Y36105D01*
X20351Y36269D01*
X20515Y36483D01*
X20619Y36732D01*
X20654Y37000D01*
X20619Y37268D01*
X20515Y37517D01*
X20351Y37731D01*
X20137Y37895D01*
X19888Y37999D01*
X19620Y38034D01*
D02*
G37*
G36*
X46700D02*
X46432Y37999D01*
X46183Y37895D01*
X45969Y37731D01*
X45805Y37517D01*
X45701Y37268D01*
X45666Y37000D01*
X45701Y36732D01*
X45805Y36483D01*
X45969Y36269D01*
X46183Y36105D01*
X46432Y36001D01*
X46700Y35966D01*
X46968Y36001D01*
X47217Y36105D01*
X47431Y36269D01*
X47595Y36483D01*
X47699Y36732D01*
X47734Y37000D01*
X47699Y37268D01*
X47595Y37517D01*
X47431Y37731D01*
X47217Y37895D01*
X46968Y37999D01*
X46700Y38034D01*
D02*
G37*
G36*
X11873Y38029D02*
X10971D01*
Y37127D01*
X11873D01*
Y38029D01*
D02*
G37*
G36*
X13029D02*
X12127D01*
Y37127D01*
X13029D01*
Y38029D01*
D02*
G37*
G36*
X34322Y39727D02*
X33020D01*
X32857Y39695D01*
X32825Y39689D01*
X32660Y39578D01*
X30732Y37651D01*
X30583Y37637D01*
X30511Y37731D01*
X30297Y37895D01*
X30048Y37999D01*
X29780Y38034D01*
X29512Y37999D01*
X29263Y37895D01*
X29049Y37731D01*
X28885Y37517D01*
X28781Y37268D01*
X28746Y37000D01*
X28781Y36732D01*
X28885Y36483D01*
X28978Y36362D01*
X28915Y36235D01*
X28105D01*
X28042Y36362D01*
X28135Y36483D01*
X28239Y36732D01*
X28274Y37000D01*
X28239Y37268D01*
X28135Y37517D01*
X27971Y37731D01*
X27757Y37895D01*
X27508Y37999D01*
X27240Y38034D01*
X26972Y37999D01*
X26723Y37895D01*
X26509Y37731D01*
X26345Y37517D01*
X26241Y37268D01*
X26206Y37000D01*
X26241Y36732D01*
X26345Y36483D01*
X26438Y36362D01*
X26375Y36235D01*
X25565D01*
X25502Y36362D01*
X25595Y36483D01*
X25699Y36732D01*
X25734Y37000D01*
X25699Y37268D01*
X25595Y37517D01*
X25431Y37731D01*
X25217Y37895D01*
X24968Y37999D01*
X24700Y38034D01*
X24432Y37999D01*
X24183Y37895D01*
X23969Y37731D01*
X23805Y37517D01*
X23701Y37268D01*
X23666Y37000D01*
X23701Y36732D01*
X23805Y36483D01*
X23898Y36362D01*
X23835Y36235D01*
X23025D01*
X22962Y36362D01*
X23055Y36483D01*
X23159Y36732D01*
X23194Y37000D01*
X23159Y37268D01*
X23055Y37517D01*
X22891Y37731D01*
X22677Y37895D01*
X22428Y37999D01*
X22160Y38034D01*
X21892Y37999D01*
X21643Y37895D01*
X21429Y37731D01*
X21265Y37517D01*
X21161Y37268D01*
X21126Y37000D01*
X21161Y36732D01*
X21265Y36483D01*
X21429Y36269D01*
X21643Y36105D01*
X21892Y36001D01*
X22130Y35970D01*
X22192Y35853D01*
X20990Y34650D01*
X20879Y34485D01*
X20840Y34290D01*
Y22472D01*
X20713Y22410D01*
X20590Y22504D01*
X20344Y22606D01*
X20080Y22641D01*
X19816Y22606D01*
X19570Y22504D01*
X19358Y22342D01*
X19196Y22130D01*
X19094Y21884D01*
X19059Y21620D01*
X19094Y21356D01*
X19196Y21110D01*
X19358Y20898D01*
X19570Y20736D01*
X19816Y20634D01*
X20080Y20599D01*
X20344Y20634D01*
X20590Y20736D01*
X20713Y20830D01*
X20840Y20768D01*
Y17741D01*
X20879Y17545D01*
X20990Y17380D01*
X22467Y15902D01*
X22422Y15775D01*
X15000D01*
X14805Y15736D01*
X14640Y15626D01*
X14529Y15460D01*
X14490Y15265D01*
Y14884D01*
X14490Y14884D01*
X14278Y14722D01*
X14116Y14510D01*
X14014Y14264D01*
X13979Y14000D01*
X14014Y13736D01*
X14014Y13735D01*
X10206Y9927D01*
X10080Y9936D01*
X10017Y10017D01*
X9792Y10189D01*
X9531Y10298D01*
X9250Y10335D01*
X8969Y10298D01*
X8708Y10189D01*
X8483Y10017D01*
X8311Y9792D01*
X8202Y9531D01*
X8165Y9250D01*
X8202Y8969D01*
X8311Y8708D01*
X8483Y8483D01*
X8708Y8311D01*
X8969Y8202D01*
X9250Y8165D01*
X9531Y8202D01*
X9792Y8311D01*
X10017Y8483D01*
X10189Y8708D01*
X10203Y8740D01*
X10250D01*
X10445Y8779D01*
X10610Y8889D01*
X14735Y13014D01*
X14736Y13014D01*
X15000Y12979D01*
X15264Y13014D01*
X15510Y13116D01*
X15722Y13278D01*
X15884Y13490D01*
X15986Y13736D01*
X16021Y14000D01*
X15986Y14264D01*
X15884Y14510D01*
X15793Y14629D01*
X15856Y14756D01*
X16684D01*
X16747Y14629D01*
X16656Y14510D01*
X16554Y14264D01*
X16519Y14000D01*
X16554Y13736D01*
X16656Y13490D01*
X16818Y13278D01*
X17030Y13116D01*
X17030Y13116D01*
Y8622D01*
X17069Y8427D01*
X17180Y8262D01*
X18208Y7233D01*
X18155Y7106D01*
X8365D01*
X7538Y7933D01*
Y9881D01*
X7512Y10076D01*
X7437Y10259D01*
X7317Y10416D01*
X6598Y11134D01*
Y14360D01*
X6725Y14406D01*
X6825Y14285D01*
X7077Y14078D01*
X7364Y13925D01*
X7676Y13830D01*
X7873Y13811D01*
Y15460D01*
Y17110D01*
X7676Y17090D01*
X7364Y16996D01*
X7077Y16842D01*
X6825Y16635D01*
X6725Y16514D01*
X6598Y16560D01*
Y19447D01*
X6725Y19492D01*
X6828Y19368D01*
X7079Y19161D01*
X7365Y19008D01*
X7677Y18914D01*
X8000Y18882D01*
X8323Y18914D01*
X8634Y19008D01*
X8921Y19161D01*
X9172Y19368D01*
X9379Y19619D01*
X9532Y19906D01*
X9626Y20217D01*
X9658Y20540D01*
X9626Y20863D01*
X9532Y21174D01*
X9379Y21461D01*
X9172Y21712D01*
X8921Y21919D01*
X8634Y22072D01*
X8323Y22166D01*
X8000Y22198D01*
X7677Y22166D01*
X7365Y22072D01*
X7079Y21919D01*
X6828Y21712D01*
X6725Y21588D01*
X6598Y21633D01*
Y22674D01*
X7933Y24009D01*
X15240D01*
X15436Y24034D01*
X15618Y24110D01*
X15775Y24230D01*
X18823Y27278D01*
X18823Y27278D01*
X18943Y27435D01*
X19019Y27617D01*
X19044Y27813D01*
Y29947D01*
X19019Y30142D01*
X18943Y30325D01*
X18823Y30482D01*
X18823Y30482D01*
X15775Y33530D01*
X15618Y33650D01*
X15436Y33725D01*
X15240Y33751D01*
X10589D01*
X8327Y36012D01*
X8293Y36274D01*
X8187Y36530D01*
X8019Y36749D01*
X7800Y36917D01*
X7544Y37023D01*
X7270Y37059D01*
X6996Y37023D01*
X6740Y36917D01*
X6521Y36749D01*
X6353Y36530D01*
X6247Y36274D01*
X6211Y36000D01*
X6247Y35726D01*
X6353Y35470D01*
X6521Y35251D01*
X6740Y35083D01*
X6996Y34977D01*
X7258Y34943D01*
X9740Y32460D01*
X9897Y32339D01*
X10080Y32264D01*
X10275Y32238D01*
X10275Y32238D01*
X14927D01*
X16674Y30490D01*
X16629Y30356D01*
X16426Y30330D01*
X16393Y30316D01*
X15285Y31425D01*
X15119Y31535D01*
X14924Y31574D01*
X9877D01*
X5745Y35706D01*
X5753Y35726D01*
X5789Y36000D01*
X5753Y36274D01*
X5647Y36530D01*
X5479Y36749D01*
X5260Y36917D01*
X5004Y37023D01*
X4730Y37059D01*
X4456Y37023D01*
X4200Y36917D01*
X3981Y36749D01*
X3813Y36530D01*
X3707Y36274D01*
X3671Y36000D01*
X3707Y35726D01*
X3813Y35470D01*
X3981Y35251D01*
X4200Y35083D01*
X4456Y34977D01*
X4730Y34941D01*
X5004Y34977D01*
X5024Y34985D01*
X9305Y30704D01*
X9471Y30593D01*
X9666Y30554D01*
X14713D01*
X15672Y29595D01*
X15659Y29563D01*
X15622Y29282D01*
X15659Y29002D01*
X15767Y28740D01*
X15940Y28515D01*
X16164Y28343D01*
X16426Y28235D01*
X16706Y28198D01*
X16987Y28235D01*
X17249Y28343D01*
X17405Y28463D01*
X17532Y28400D01*
Y28126D01*
X14927Y25521D01*
X7620D01*
X7424Y25496D01*
X7242Y25420D01*
X7085Y25300D01*
X7085Y25300D01*
X5307Y23522D01*
X5187Y23365D01*
X5111Y23183D01*
X5086Y22987D01*
Y10820D01*
X5111Y10625D01*
X5187Y10442D01*
X5263Y10344D01*
X5182Y10239D01*
X5032Y10302D01*
X4877Y10322D01*
Y9377D01*
X5822D01*
X5802Y9532D01*
X5746Y9667D01*
X5853Y9739D01*
X6025Y9567D01*
Y7620D01*
X6051Y7424D01*
X6127Y7242D01*
X6247Y7085D01*
X7517Y5815D01*
X7674Y5695D01*
X7856Y5619D01*
X8052Y5594D01*
X8052Y5594D01*
X17957D01*
X18784Y4767D01*
Y4245D01*
X18649Y4142D01*
X18448Y3880D01*
X18339Y3617D01*
X18205Y3618D01*
X18095Y3882D01*
X17894Y4144D01*
X17632Y4345D01*
X17327Y4472D01*
X17127Y4498D01*
Y3000D01*
X16873D01*
Y4498D01*
X16673Y4472D01*
X16368Y4345D01*
X16106Y4144D01*
X15905Y3882D01*
X15843Y3735D01*
X15716Y3750D01*
X15691Y3946D01*
X15615Y4128D01*
X15495Y4285D01*
X15338Y4405D01*
X15156Y4481D01*
X14960Y4506D01*
X13960D01*
X13764Y4481D01*
X13582Y4405D01*
X13425Y4285D01*
X13305Y4128D01*
X13229Y3946D01*
X13204Y3750D01*
Y2250D01*
X13229Y2054D01*
X13305Y1872D01*
X13336Y1831D01*
X13274Y1704D01*
X9847D01*
X9819Y1831D01*
X10017Y1983D01*
X10189Y2208D01*
X10298Y2469D01*
X10335Y2750D01*
X10298Y3031D01*
X10189Y3292D01*
X10017Y3517D01*
X9792Y3689D01*
X9531Y3798D01*
X9250Y3835D01*
X8969Y3798D01*
X8708Y3689D01*
X8483Y3517D01*
X8311Y3292D01*
X8202Y3031D01*
X8165Y2750D01*
X8202Y2469D01*
X8311Y2208D01*
X8483Y1983D01*
X8681Y1831D01*
X8653Y1704D01*
X6517D01*
X5787Y2434D01*
X5802Y2468D01*
X5822Y2623D01*
X4877D01*
Y1678D01*
X5032Y1698D01*
X5066Y1713D01*
X5946Y833D01*
X6111Y723D01*
X6306Y684D01*
X25734D01*
X25929Y723D01*
X26094Y833D01*
X27090Y1829D01*
X27213Y1778D01*
X27413Y1752D01*
Y3000D01*
X27667D01*
Y1752D01*
X27867Y1778D01*
X28172Y1905D01*
X28434Y2106D01*
X28635Y2368D01*
X28686Y2490D01*
X28934D01*
X28985Y2368D01*
X29186Y2106D01*
X29448Y1905D01*
X29753Y1778D01*
X29953Y1752D01*
Y3000D01*
X30080D01*
Y3127D01*
X31328D01*
X31302Y3327D01*
X31274Y3393D01*
X31382Y3465D01*
X32208Y2640D01*
X32373Y2529D01*
X32568Y2490D01*
X33322D01*
X33325Y2483D01*
X33489Y2269D01*
X33703Y2105D01*
X33952Y2001D01*
X34220Y1966D01*
X34488Y2001D01*
X34737Y2105D01*
X34951Y2269D01*
X35115Y2483D01*
X35219Y2732D01*
X35254Y3000D01*
X35219Y3268D01*
X35115Y3517D01*
X34951Y3731D01*
X34884Y3783D01*
X34927Y3910D01*
X35129D01*
X35764Y3275D01*
X35761Y3268D01*
X35726Y3000D01*
X35761Y2732D01*
X35865Y2483D01*
X36029Y2269D01*
X36243Y2105D01*
X36492Y2001D01*
X36760Y1966D01*
X37028Y2001D01*
X37035Y2004D01*
X37723Y1316D01*
X37889Y1205D01*
X38084Y1167D01*
X56159D01*
X56354Y1205D01*
X56520Y1316D01*
X58653Y3450D01*
X58764Y3615D01*
X58770Y3647D01*
X58803Y3810D01*
Y8787D01*
X58764Y8982D01*
X58653Y9147D01*
X57996Y9805D01*
X57999Y9812D01*
X58034Y10080D01*
X57999Y10348D01*
X57895Y10597D01*
X57731Y10811D01*
X57517Y10975D01*
X57268Y11079D01*
X57000Y11114D01*
X56732Y11079D01*
X56483Y10975D01*
X56269Y10811D01*
X56105Y10597D01*
X56001Y10348D01*
X55966Y10080D01*
X56001Y9812D01*
X56105Y9563D01*
X56269Y9349D01*
X56483Y9185D01*
X56732Y9081D01*
X57000Y9046D01*
X57268Y9081D01*
X57275Y9084D01*
X57783Y8576D01*
Y8391D01*
X57656Y8328D01*
X57517Y8435D01*
X57268Y8539D01*
X57000Y8574D01*
X56732Y8539D01*
X56483Y8435D01*
X56269Y8271D01*
X56105Y8057D01*
X56001Y7808D01*
X55966Y7540D01*
X56001Y7272D01*
X56105Y7023D01*
X56269Y6809D01*
X56483Y6645D01*
X56732Y6541D01*
X57000Y6506D01*
X57268Y6541D01*
X57517Y6645D01*
X57656Y6752D01*
X57783Y6689D01*
Y6025D01*
X55975D01*
Y3975D01*
X57571D01*
X57620Y3858D01*
X55948Y2186D01*
X53025D01*
Y4025D01*
X50975D01*
Y2186D01*
X50282D01*
X50225Y2313D01*
X50355Y2483D01*
X50459Y2732D01*
X50494Y3000D01*
X50459Y3268D01*
X50355Y3517D01*
X50191Y3731D01*
X49977Y3895D01*
X49728Y3999D01*
X49460Y4034D01*
X49192Y3999D01*
X48943Y3895D01*
X48729Y3731D01*
X48565Y3517D01*
X48461Y3268D01*
X48426Y3000D01*
X48461Y2732D01*
X48565Y2483D01*
X48695Y2313D01*
X48638Y2186D01*
X47742D01*
X47685Y2313D01*
X47815Y2483D01*
X47919Y2732D01*
X47954Y3000D01*
X47919Y3268D01*
X47815Y3517D01*
X47651Y3731D01*
X47437Y3895D01*
X47188Y3999D01*
X46920Y4034D01*
X46652Y3999D01*
X46403Y3895D01*
X46189Y3731D01*
X46025Y3517D01*
X45921Y3268D01*
X45886Y3000D01*
X45921Y2732D01*
X46025Y2483D01*
X46155Y2313D01*
X46098Y2186D01*
X45202D01*
X45145Y2313D01*
X45275Y2483D01*
X45379Y2732D01*
X45414Y3000D01*
X45379Y3268D01*
X45275Y3517D01*
X45111Y3731D01*
X44897Y3895D01*
X44648Y3999D01*
X44380Y4034D01*
X44112Y3999D01*
X43863Y3895D01*
X43649Y3731D01*
X43485Y3517D01*
X43381Y3268D01*
X43346Y3000D01*
X43381Y2732D01*
X43485Y2483D01*
X43615Y2313D01*
X43558Y2186D01*
X42662D01*
X42605Y2313D01*
X42735Y2483D01*
X42839Y2732D01*
X42874Y3000D01*
X42839Y3268D01*
X42735Y3517D01*
X42571Y3731D01*
X42357Y3895D01*
X42108Y3999D01*
X41840Y4034D01*
X41572Y3999D01*
X41565Y3996D01*
X39366Y6195D01*
X39415Y6312D01*
X46398D01*
X46593Y6351D01*
X46758Y6462D01*
X47981Y7684D01*
X48013Y7670D01*
X48294Y7634D01*
X48574Y7670D01*
X48836Y7779D01*
X49060Y7951D01*
X49233Y8176D01*
X49341Y8437D01*
X49378Y8718D01*
X49341Y8998D01*
X49233Y9260D01*
X49060Y9484D01*
X48836Y9657D01*
X48729Y9701D01*
X48754Y9828D01*
X52178D01*
X52373Y9867D01*
X52538Y9977D01*
X56722Y14161D01*
X56731Y14157D01*
X56873Y14139D01*
Y15033D01*
X55979D01*
X55997Y14891D01*
X56001Y14882D01*
X51967Y10848D01*
X45732D01*
X45694Y10975D01*
X45760Y11019D01*
X47755Y13014D01*
X47756Y13014D01*
X48020Y12979D01*
X48284Y13014D01*
X48530Y13116D01*
X48742Y13278D01*
X48904Y13490D01*
X49006Y13736D01*
X49041Y14000D01*
X49006Y14264D01*
X48904Y14510D01*
X48742Y14722D01*
X48530Y14884D01*
X48284Y14986D01*
X48020Y15021D01*
X47756Y14986D01*
X47510Y14884D01*
X47298Y14722D01*
X47136Y14510D01*
X47034Y14264D01*
X46999Y14000D01*
X47034Y13736D01*
X47034Y13735D01*
X45188Y11889D01*
X32649D01*
X32454Y11850D01*
X32289Y11740D01*
X30564Y10015D01*
X30544Y10023D01*
X30270Y10059D01*
X29996Y10023D01*
X29740Y9917D01*
X29521Y9749D01*
X29353Y9530D01*
X29247Y9274D01*
X29211Y9000D01*
X29247Y8726D01*
X29353Y8470D01*
X29521Y8251D01*
X29576Y8209D01*
X29533Y8082D01*
X29369D01*
X28745Y8706D01*
X28753Y8726D01*
X28789Y9000D01*
X28753Y9274D01*
X28647Y9530D01*
X28479Y9749D01*
X28260Y9917D01*
X28004Y10023D01*
X27730Y10059D01*
X27456Y10023D01*
X27200Y9917D01*
X26981Y9749D01*
X26813Y9530D01*
X26707Y9274D01*
X26671Y9000D01*
X26707Y8726D01*
X26813Y8470D01*
X26981Y8251D01*
X27200Y8083D01*
X27456Y7977D01*
X27730Y7941D01*
X28004Y7977D01*
X28024Y7985D01*
X28560Y7449D01*
X28511Y7332D01*
X26881D01*
X25670Y8543D01*
Y13116D01*
X25670Y13116D01*
X25793Y13210D01*
X25920Y13148D01*
Y12725D01*
X25959Y12530D01*
X26070Y12365D01*
X26235Y12254D01*
X26430Y12216D01*
X39130D01*
X39325Y12254D01*
X39491Y12365D01*
X39601Y12530D01*
X39640Y12725D01*
Y13148D01*
X39767Y13210D01*
X39890Y13116D01*
X40136Y13014D01*
X40400Y12979D01*
X40664Y13014D01*
X40910Y13116D01*
X41122Y13278D01*
X41284Y13490D01*
X41386Y13736D01*
X41421Y14000D01*
X41386Y14264D01*
X41284Y14510D01*
X41122Y14722D01*
X40910Y14884D01*
X40664Y14986D01*
X40400Y15021D01*
X40136Y14986D01*
X39890Y14884D01*
X39767Y14790D01*
X39640Y14852D01*
Y17780D01*
X39601Y17975D01*
X39491Y18140D01*
X39258Y18373D01*
X39307Y18490D01*
X51116D01*
X51116Y18490D01*
X51278Y18278D01*
X51490Y18116D01*
X51736Y18014D01*
X52000Y17979D01*
X52264Y18014D01*
X52510Y18116D01*
X52722Y18278D01*
X52884Y18490D01*
X52986Y18736D01*
X53021Y19000D01*
X52986Y19264D01*
X52884Y19510D01*
X52751Y19683D01*
X52803Y19810D01*
X55320D01*
X55515Y19849D01*
X55680Y19960D01*
X56709Y20988D01*
X58012D01*
Y23012D01*
X55988D01*
Y21709D01*
X55109Y20830D01*
X48849D01*
X48787Y20957D01*
X48904Y21110D01*
X49006Y21356D01*
X49041Y21620D01*
X49006Y21884D01*
X48904Y22130D01*
X48742Y22342D01*
X48530Y22504D01*
X48284Y22606D01*
X48020Y22641D01*
X47756Y22606D01*
X47510Y22504D01*
X47298Y22342D01*
X47136Y22130D01*
X47034Y21884D01*
X46999Y21620D01*
X47034Y21356D01*
X47136Y21110D01*
X47253Y20957D01*
X47191Y20830D01*
X46309D01*
X46247Y20957D01*
X46364Y21110D01*
X46466Y21356D01*
X46501Y21620D01*
X46466Y21884D01*
X46364Y22130D01*
X46202Y22342D01*
X45990Y22504D01*
X45744Y22606D01*
X45480Y22641D01*
X45216Y22606D01*
X44970Y22504D01*
X44758Y22342D01*
X44596Y22130D01*
X44494Y21884D01*
X44459Y21620D01*
X44494Y21356D01*
X44596Y21110D01*
X44713Y20957D01*
X44651Y20830D01*
X43769D01*
X43707Y20957D01*
X43824Y21110D01*
X43926Y21356D01*
X43961Y21620D01*
X43926Y21884D01*
X43824Y22130D01*
X43662Y22342D01*
X43450Y22504D01*
X43204Y22606D01*
X42940Y22641D01*
X42676Y22606D01*
X42430Y22504D01*
X42218Y22342D01*
X42056Y22130D01*
X41954Y21884D01*
X41919Y21620D01*
X41954Y21356D01*
X42056Y21110D01*
X42173Y20957D01*
X42111Y20830D01*
X41911D01*
X41386Y21355D01*
X41386Y21356D01*
X41421Y21620D01*
X41386Y21884D01*
X41284Y22130D01*
X41122Y22342D01*
X40910Y22504D01*
X40664Y22606D01*
X40400Y22641D01*
X40136Y22606D01*
X39890Y22504D01*
X39678Y22342D01*
X39516Y22130D01*
X39414Y21884D01*
X39379Y21620D01*
X39414Y21356D01*
X39516Y21110D01*
X39678Y20898D01*
X39890Y20736D01*
X40136Y20634D01*
X40400Y20599D01*
X40664Y20634D01*
X40665Y20634D01*
X41340Y19960D01*
X41505Y19849D01*
X41700Y19810D01*
X51197D01*
X51249Y19683D01*
X51116Y19510D01*
X51116Y19510D01*
X38121D01*
X37100Y20531D01*
Y20768D01*
X37227Y20830D01*
X37350Y20736D01*
X37596Y20634D01*
X37860Y20599D01*
X38124Y20634D01*
X38370Y20736D01*
X38582Y20898D01*
X38744Y21110D01*
X38846Y21356D01*
X38881Y21620D01*
X38846Y21884D01*
X38846Y21885D01*
X39997Y23036D01*
X53466D01*
X53661Y23075D01*
X53826Y23185D01*
X56735Y26094D01*
X56736Y26094D01*
X57000Y26059D01*
X57264Y26094D01*
X57510Y26196D01*
X57638Y26294D01*
X57765Y26231D01*
Y25378D01*
X57638Y25326D01*
X57510Y25424D01*
X57264Y25526D01*
X57000Y25561D01*
X56736Y25526D01*
X56490Y25424D01*
X56278Y25262D01*
X56116Y25050D01*
X56014Y24804D01*
X55979Y24540D01*
X56014Y24276D01*
X56116Y24030D01*
X56278Y23818D01*
X56490Y23656D01*
X56736Y23554D01*
X57000Y23519D01*
X57264Y23554D01*
X57510Y23656D01*
X57677Y23784D01*
X58522D01*
X58717Y23809D01*
X58900Y23885D01*
X59057Y24005D01*
X59177Y24162D01*
X59252Y24344D01*
X59278Y24540D01*
Y36220D01*
X59252Y36416D01*
X59177Y36599D01*
X59057Y36755D01*
X58900Y36876D01*
X58717Y36951D01*
X58522Y36977D01*
X53264D01*
X53068Y36951D01*
X52928Y36893D01*
X52809Y36965D01*
X52814Y37000D01*
X52779Y37268D01*
X52675Y37517D01*
X52511Y37731D01*
X52297Y37895D01*
X52048Y37999D01*
X51780Y38034D01*
X51512Y37999D01*
X51263Y37895D01*
X51049Y37731D01*
X50885Y37517D01*
X50781Y37268D01*
X50746Y37000D01*
X50781Y36732D01*
X50885Y36483D01*
X51049Y36269D01*
X51263Y36105D01*
X51512Y36001D01*
X51780Y35966D01*
X52048Y36001D01*
X52297Y36105D01*
X52380Y36169D01*
X52507Y36106D01*
Y35072D01*
X34740D01*
X34544Y35046D01*
X34361Y34971D01*
X34205Y34850D01*
X34205Y34850D01*
X29719Y30365D01*
X29706Y30366D01*
X29426Y30330D01*
X29164Y30221D01*
X28940Y30049D01*
X28767Y29824D01*
X28659Y29563D01*
X28622Y29282D01*
X28659Y29002D01*
X28732Y28825D01*
X28625Y28753D01*
X28411Y28966D01*
X28426Y29001D01*
X28446Y29155D01*
X27501D01*
Y28211D01*
X27656Y28231D01*
X27690Y28245D01*
X29730Y26205D01*
Y22509D01*
X29728Y22507D01*
X29515Y22345D01*
X29353Y22132D01*
X29250Y21885D01*
X29232Y21747D01*
X31248D01*
X31230Y21885D01*
X31128Y22132D01*
X30965Y22345D01*
X30752Y22507D01*
X30750Y22509D01*
Y25020D01*
X30821Y25049D01*
X30877Y25061D01*
X31036Y24954D01*
X31068Y24948D01*
X31231Y24916D01*
X37629D01*
X37682Y24789D01*
X36230Y23336D01*
X36119Y23171D01*
X36080Y22976D01*
Y22472D01*
X35953Y22410D01*
X35830Y22504D01*
X35584Y22606D01*
X35320Y22641D01*
X35056Y22606D01*
X34810Y22504D01*
X34598Y22342D01*
X34436Y22130D01*
X34334Y21884D01*
X34299Y21620D01*
X34334Y21356D01*
X34436Y21110D01*
X34598Y20898D01*
X34810Y20736D01*
X35056Y20634D01*
X35320Y20599D01*
X35584Y20634D01*
X35830Y20736D01*
X35953Y20830D01*
X36080Y20768D01*
Y20320D01*
X36119Y20125D01*
X36230Y19960D01*
X37550Y18640D01*
X37550Y18640D01*
X38620Y17569D01*
Y14852D01*
X38493Y14790D01*
X38370Y14884D01*
X38124Y14986D01*
X37860Y15021D01*
X37596Y14986D01*
X37595Y14986D01*
X35228Y17353D01*
X35063Y17464D01*
X34867Y17502D01*
X27429D01*
X24400Y20531D01*
Y20768D01*
X24527Y20830D01*
X24650Y20736D01*
X24896Y20634D01*
X25160Y20599D01*
X25424Y20634D01*
X25670Y20736D01*
X25882Y20898D01*
X26044Y21110D01*
X26146Y21356D01*
X26181Y21620D01*
X26146Y21884D01*
X26044Y22130D01*
X25882Y22342D01*
X25670Y22504D01*
X25424Y22606D01*
X25160Y22641D01*
X24896Y22606D01*
X24650Y22504D01*
X24527Y22410D01*
X24400Y22472D01*
Y27729D01*
X26189Y29518D01*
X26309Y29459D01*
X26303Y29409D01*
X28446D01*
X28426Y29564D01*
X28317Y29826D01*
X28144Y30052D01*
X27919Y30225D01*
X27765Y30288D01*
X27791Y30415D01*
X27925D01*
X28120Y30454D01*
X28285Y30564D01*
X33696Y35975D01*
X35025D01*
Y37628D01*
X35142Y37677D01*
X35544Y37275D01*
X35541Y37268D01*
X35506Y37000D01*
X35541Y36732D01*
X35645Y36483D01*
X35809Y36269D01*
X36023Y36105D01*
X36272Y36001D01*
X36540Y35966D01*
X36808Y36001D01*
X37057Y36105D01*
X37271Y36269D01*
X37435Y36483D01*
X37539Y36732D01*
X37574Y37000D01*
X37539Y37268D01*
X37435Y37517D01*
X37271Y37731D01*
X37057Y37895D01*
X36808Y37999D01*
X36540Y38034D01*
X36272Y37999D01*
X36265Y37996D01*
X34683Y39578D01*
X34517Y39689D01*
X34322Y39727D01*
D02*
G37*
G36*
X49240Y38034D02*
X48972Y37999D01*
X48723Y37895D01*
X48509Y37731D01*
X48345Y37517D01*
X48241Y37268D01*
X48206Y37000D01*
X48241Y36732D01*
X48345Y36483D01*
X48509Y36269D01*
X48723Y36105D01*
X48972Y36001D01*
X49240Y35966D01*
X49508Y36001D01*
X49757Y36105D01*
X49971Y36269D01*
X50135Y36483D01*
X50239Y36732D01*
X50274Y37000D01*
X50239Y37268D01*
X50135Y37517D01*
X49971Y37731D01*
X49757Y37895D01*
X49508Y37999D01*
X49240Y38034D01*
D02*
G37*
G36*
X11873Y36873D02*
X10971D01*
Y35971D01*
X11873D01*
Y36873D01*
D02*
G37*
G36*
X13029D02*
X12127D01*
Y35971D01*
X13029D01*
Y36873D01*
D02*
G37*
G36*
X6500Y30009D02*
X6239Y29974D01*
X5996Y29873D01*
X5787Y29713D01*
X5627Y29504D01*
X5526Y29261D01*
X5491Y29000D01*
X5526Y28739D01*
X5627Y28496D01*
X5787Y28287D01*
X5996Y28126D01*
X6239Y28026D01*
X6500Y27991D01*
X6761Y28026D01*
X7004Y28126D01*
X7213Y28287D01*
X7374Y28496D01*
X7474Y28739D01*
X7509Y29000D01*
X7474Y29261D01*
X7374Y29504D01*
X7213Y29713D01*
X7004Y29873D01*
X6761Y29974D01*
X6500Y30009D01*
D02*
G37*
G36*
X12500Y30000D02*
X10500D01*
Y28000D01*
X12500D01*
Y30000D01*
D02*
G37*
G36*
X27247Y29155D02*
X26303D01*
X26323Y29001D01*
X26432Y28738D01*
X26605Y28513D01*
X26830Y28340D01*
X27093Y28231D01*
X27247Y28211D01*
Y29155D01*
D02*
G37*
G36*
X9000Y30009D02*
X8739Y29974D01*
X8496Y29873D01*
X8287Y29713D01*
X8126Y29504D01*
X8026Y29261D01*
X7991Y29000D01*
X8026Y28739D01*
X8126Y28496D01*
X8287Y28287D01*
X8496Y28126D01*
X8739Y28026D01*
X9000Y27991D01*
X9261Y28026D01*
X9504Y28126D01*
X9713Y28287D01*
X9873Y28496D01*
X9974Y28739D01*
X10009Y29000D01*
X9974Y29261D01*
X9873Y29504D01*
X9713Y29713D01*
X9504Y29873D01*
X9261Y29974D01*
X9000Y30009D01*
D02*
G37*
G36*
X30113Y21493D02*
X29232D01*
X29250Y21355D01*
X29353Y21108D01*
X29515Y20895D01*
X29728Y20733D01*
X29975Y20630D01*
X30113Y20612D01*
Y21493D01*
D02*
G37*
G36*
X31248D02*
X30367D01*
Y20612D01*
X30505Y20630D01*
X30752Y20733D01*
X30965Y20895D01*
X31128Y21108D01*
X31230Y21355D01*
X31248Y21493D01*
D02*
G37*
%LPD*%
G36*
X38304Y3275D02*
X38301Y3268D01*
X38266Y3000D01*
X38301Y2732D01*
X38405Y2483D01*
X38535Y2313D01*
X38478Y2186D01*
X38295D01*
X37756Y2725D01*
X37759Y2732D01*
X37794Y3000D01*
X37759Y3268D01*
X37655Y3517D01*
X37491Y3731D01*
X37277Y3895D01*
X37028Y3999D01*
X36760Y4034D01*
X36492Y3999D01*
X36485Y3996D01*
X35796Y4685D01*
X35848Y4812D01*
X36767D01*
X38304Y3275D01*
D02*
G37*
G36*
X38951Y10742D02*
X38885Y10698D01*
X37942Y9755D01*
X37907Y9769D01*
X37753Y9789D01*
Y8845D01*
X38697D01*
X38677Y8999D01*
X38663Y9034D01*
X39457Y9828D01*
X47833D01*
X47858Y9701D01*
X47751Y9657D01*
X47527Y9484D01*
X47355Y9260D01*
X47246Y8998D01*
X47209Y8718D01*
X47246Y8437D01*
X47260Y8405D01*
X46187Y7332D01*
X35780D01*
X35179Y7933D01*
X35014Y8043D01*
X34818Y8082D01*
X31007D01*
X30964Y8209D01*
X31019Y8251D01*
X31187Y8470D01*
X31293Y8726D01*
X31329Y9000D01*
X31293Y9274D01*
X31285Y9294D01*
X32860Y10869D01*
X38913D01*
X38951Y10742D01*
D02*
G37*
G36*
X24367Y14629D02*
X24276Y14510D01*
X24174Y14264D01*
X24139Y14000D01*
X24174Y13736D01*
X24276Y13490D01*
X24438Y13278D01*
X24650Y13116D01*
X24650Y13116D01*
Y8332D01*
X24689Y8137D01*
X24800Y7972D01*
X26072Y6699D01*
X26023Y6582D01*
X24341D01*
X23130Y7793D01*
Y13116D01*
X23130Y13116D01*
X23342Y13278D01*
X23504Y13490D01*
X23606Y13736D01*
X23641Y14000D01*
X23606Y14264D01*
X23504Y14510D01*
X23413Y14629D01*
X23476Y14756D01*
X24304D01*
X24367Y14629D01*
D02*
G37*
G36*
X39368Y23849D02*
X38125Y22606D01*
X38124Y22606D01*
X37860Y22641D01*
X37596Y22606D01*
X37350Y22504D01*
X37227Y22410D01*
X37100Y22472D01*
Y22764D01*
X38311Y23976D01*
X39315D01*
X39368Y23849D01*
D02*
G37*
G36*
X40844Y3275D02*
X40841Y3268D01*
X40806Y3000D01*
X40841Y2732D01*
X40945Y2483D01*
X41075Y2313D01*
X41018Y2186D01*
X40122D01*
X40065Y2313D01*
X40195Y2483D01*
X40299Y2732D01*
X40334Y3000D01*
X40299Y3268D01*
X40195Y3517D01*
X40031Y3731D01*
X39817Y3895D01*
X39568Y3999D01*
X39300Y4034D01*
X39032Y3999D01*
X39025Y3996D01*
X37576Y5445D01*
X37625Y5562D01*
X38557D01*
X40844Y3275D01*
D02*
G37*
G36*
X21230Y4212D02*
X21395Y4101D01*
X21427Y4095D01*
X21590Y4062D01*
X24133D01*
X24174Y3942D01*
X24108Y3892D01*
X24005Y3756D01*
X20683D01*
X20632Y3880D01*
X20432Y4142D01*
X20296Y4245D01*
Y4965D01*
X20423Y5018D01*
X21230Y4212D01*
D02*
G37*
G36*
X21827Y14629D02*
X21736Y14510D01*
X21634Y14264D01*
X21599Y14000D01*
X21634Y13736D01*
X21736Y13490D01*
X21898Y13278D01*
X22110Y13116D01*
X22110Y13116D01*
Y7582D01*
X22149Y7387D01*
X22260Y7222D01*
X23532Y5949D01*
X23483Y5832D01*
X23007D01*
X20590Y8249D01*
Y13116D01*
X20590Y13116D01*
X20802Y13278D01*
X20964Y13490D01*
X21066Y13736D01*
X21101Y14000D01*
X21066Y14264D01*
X20964Y14510D01*
X20873Y14629D01*
X20936Y14756D01*
X21764D01*
X21827Y14629D01*
D02*
G37*
G36*
X19287D02*
X19196Y14510D01*
X19094Y14264D01*
X19059Y14000D01*
X19094Y13736D01*
X19196Y13490D01*
X19358Y13278D01*
X19570Y13116D01*
X19570Y13116D01*
Y8038D01*
X19609Y7843D01*
X19720Y7677D01*
X22198Y5199D01*
X22149Y5082D01*
X21801D01*
X18050Y8833D01*
Y13116D01*
X18050Y13116D01*
X18262Y13278D01*
X18424Y13490D01*
X18526Y13736D01*
X18561Y14000D01*
X18526Y14264D01*
X18424Y14510D01*
X18333Y14629D01*
X18396Y14756D01*
X19224D01*
X19287Y14629D01*
D02*
G37*
G36*
X36874Y14265D02*
X36874Y14264D01*
X36839Y14000D01*
X36874Y13736D01*
X36976Y13490D01*
X37074Y13362D01*
X37011Y13235D01*
X36169D01*
X36106Y13362D01*
X36204Y13490D01*
X36306Y13736D01*
X36341Y14000D01*
X36306Y14264D01*
X36204Y14510D01*
X36042Y14722D01*
X35830Y14884D01*
X35584Y14986D01*
X35320Y15021D01*
X35056Y14986D01*
X35055Y14986D01*
X33676Y16365D01*
X33724Y16483D01*
X34656D01*
X36874Y14265D01*
D02*
G37*
G36*
X34334D02*
X34334Y14264D01*
X34299Y14000D01*
X34334Y13736D01*
X34436Y13490D01*
X34534Y13362D01*
X34471Y13235D01*
X33634D01*
X33571Y13362D01*
X33667Y13488D01*
X33770Y13735D01*
X33788Y13873D01*
X31772D01*
X31790Y13735D01*
X31893Y13488D01*
X31989Y13362D01*
X31926Y13235D01*
X31089D01*
X31026Y13362D01*
X31124Y13490D01*
X31226Y13736D01*
X31261Y14000D01*
X31226Y14264D01*
X31124Y14510D01*
X30962Y14722D01*
X30750Y14884D01*
X30504Y14986D01*
X30240Y15021D01*
X29976Y14986D01*
X29730Y14884D01*
X29518Y14722D01*
X29356Y14510D01*
X29254Y14264D01*
X29219Y14000D01*
X29254Y13736D01*
X29356Y13490D01*
X29454Y13362D01*
X29391Y13235D01*
X28549D01*
X28486Y13362D01*
X28584Y13490D01*
X28686Y13736D01*
X28721Y14000D01*
X28686Y14264D01*
X28584Y14510D01*
X28422Y14722D01*
X28210Y14884D01*
X27964Y14986D01*
X27700Y15021D01*
X27436Y14986D01*
X27190Y14884D01*
X27037Y14767D01*
X26915Y14797D01*
X26894Y14811D01*
X26791Y14965D01*
X26162Y15594D01*
X26208Y15721D01*
X32878D01*
X34334Y14265D01*
D02*
G37*
G36*
X56208Y35337D02*
X56113Y35212D01*
X56010Y34965D01*
X55992Y34827D01*
X57000D01*
Y34700D01*
X57127D01*
Y33692D01*
X57265Y33710D01*
X57512Y33813D01*
X57638Y33909D01*
X57765Y33846D01*
Y33009D01*
X57638Y32946D01*
X57510Y33044D01*
X57264Y33146D01*
X57000Y33181D01*
X56736Y33146D01*
X56490Y33044D01*
X56278Y32882D01*
X56116Y32670D01*
X56014Y32424D01*
X55979Y32160D01*
X56014Y31896D01*
X56014Y31895D01*
X49953Y25834D01*
X47571D01*
X46684Y26720D01*
X46684Y26720D01*
Y26720D01*
X46684Y26720D01*
X46684Y26720D01*
X46523Y26881D01*
Y27180D01*
X46650Y27275D01*
X46763Y27252D01*
X50062D01*
X50257Y27291D01*
X50423Y27402D01*
X56732Y33711D01*
X56735Y33710D01*
X56873Y33692D01*
Y34573D01*
X55992D01*
X56010Y34435D01*
X56011Y34432D01*
X49851Y28272D01*
X48987D01*
Y29987D01*
X48756D01*
Y33559D01*
X53264D01*
X53460Y33585D01*
X53642Y33660D01*
X53799Y33780D01*
X53919Y33937D01*
X53994Y34120D01*
X54020Y34315D01*
Y35464D01*
X56145D01*
X56208Y35337D01*
D02*
G37*
G36*
X57765Y31311D02*
Y30469D01*
X57638Y30406D01*
X57510Y30504D01*
X57264Y30606D01*
X57000Y30641D01*
X56736Y30606D01*
X56490Y30504D01*
X56278Y30342D01*
X56116Y30130D01*
X56014Y29884D01*
X55979Y29620D01*
X56014Y29356D01*
X56116Y29110D01*
X56278Y28898D01*
X56490Y28736D01*
X56736Y28634D01*
X57000Y28599D01*
X57264Y28634D01*
X57510Y28736D01*
X57638Y28834D01*
X57765Y28771D01*
Y27929D01*
X57638Y27866D01*
X57510Y27964D01*
X57264Y28066D01*
X57000Y28101D01*
X56736Y28066D01*
X56490Y27964D01*
X56278Y27802D01*
X56116Y27590D01*
X56014Y27344D01*
X55979Y27080D01*
X56014Y26816D01*
X56014Y26815D01*
X53255Y24056D01*
X44921D01*
X44868Y24183D01*
X46260Y25575D01*
X46387D01*
X46999Y24963D01*
X47098Y24897D01*
X47164Y24853D01*
X47164Y24853D01*
X47164Y24853D01*
X47263Y24833D01*
X47360Y24814D01*
X47360D01*
X47360D01*
X50164D01*
X50359Y24853D01*
X50524Y24963D01*
X56735Y31174D01*
X56736Y31174D01*
X57000Y31139D01*
X57264Y31174D01*
X57510Y31276D01*
X57638Y31374D01*
X57765Y31311D01*
D02*
G37*
G36*
X47244Y30890D02*
X47148Y30850D01*
X47117Y30848D01*
X45854Y32110D01*
X45688Y32221D01*
X45493Y32260D01*
X39040D01*
X38845Y32221D01*
X38679Y32110D01*
X32504Y25935D01*
X31442D01*
X30601Y26777D01*
X29177Y28200D01*
X29249Y28308D01*
X29426Y28235D01*
X29706Y28198D01*
X29987Y28235D01*
X30249Y28343D01*
X30473Y28515D01*
X30645Y28740D01*
X30754Y29002D01*
X30791Y29282D01*
X30789Y29295D01*
X35053Y33559D01*
X47244D01*
Y30890D01*
D02*
G37*
G36*
X22110Y20736D02*
X22356Y20634D01*
X22620Y20599D01*
X22884Y20634D01*
X23130Y20736D01*
X23253Y20830D01*
X23380Y20768D01*
Y20320D01*
X23419Y20125D01*
X23530Y19960D01*
X26631Y16858D01*
X26583Y16740D01*
X23071D01*
X21860Y17952D01*
Y20768D01*
X21987Y20830D01*
X22110Y20736D01*
D02*
G37*
G36*
X34677Y38142D02*
X34628Y38025D01*
X32975D01*
Y36696D01*
X27714Y31435D01*
X26875D01*
X26712Y31402D01*
X26680Y31396D01*
X26514Y31285D01*
X23530Y28300D01*
X23419Y28135D01*
X23380Y27940D01*
Y22472D01*
X23253Y22410D01*
X23130Y22504D01*
X22884Y22606D01*
X22620Y22641D01*
X22356Y22606D01*
X22110Y22504D01*
X21987Y22410D01*
X21860Y22472D01*
Y34079D01*
X22996Y35215D01*
X31064D01*
X31259Y35254D01*
X31425Y35364D01*
X31535Y35530D01*
X31574Y35725D01*
Y37051D01*
X33231Y38708D01*
X34111D01*
X34677Y38142D01*
D02*
G37*
G36*
X41494Y31123D02*
X40687Y30316D01*
X40655Y30330D01*
X40374Y30366D01*
X40094Y30330D01*
X39832Y30221D01*
X39608Y30049D01*
X39435Y29824D01*
X39327Y29563D01*
X39290Y29282D01*
X39327Y29002D01*
X39435Y28740D01*
X39608Y28515D01*
X39832Y28343D01*
X40094Y28235D01*
X40374Y28198D01*
X40655Y28235D01*
X40917Y28343D01*
X41141Y28515D01*
X41313Y28740D01*
X41422Y29002D01*
X41459Y29282D01*
X41422Y29563D01*
X41408Y29595D01*
X42291Y30478D01*
X44239D01*
X44611Y30106D01*
X44555Y29992D01*
X44500Y29999D01*
X44241Y29965D01*
X44000Y29865D01*
X43793Y29706D01*
X43635Y29500D01*
X43535Y29259D01*
X43518Y29127D01*
X44500D01*
Y29000D01*
X44627D01*
Y28018D01*
X44759Y28035D01*
X45000Y28135D01*
X45206Y28293D01*
X45365Y28500D01*
X45377Y28528D01*
X45504Y28502D01*
Y26670D01*
Y26260D01*
X44239Y24995D01*
X41396D01*
X41343Y25122D01*
X44254Y28033D01*
X44373Y28018D01*
Y28873D01*
X43518D01*
X43533Y28754D01*
X40714Y25935D01*
X34112D01*
X34063Y26053D01*
X39251Y31240D01*
X41446D01*
X41494Y31123D01*
D02*
G37*
G36*
X24108Y2108D02*
X24370Y1908D01*
X24557Y1831D01*
X24531Y1704D01*
X20427D01*
X20386Y1824D01*
X20432Y1858D01*
X20632Y2120D01*
X20683Y2244D01*
X24005D01*
X24108Y2108D01*
D02*
G37*
%LPC*%
G36*
X32653Y15008D02*
X32515Y14990D01*
X32268Y14887D01*
X32055Y14725D01*
X31893Y14512D01*
X31790Y14265D01*
X31772Y14127D01*
X32653D01*
Y15008D01*
D02*
G37*
G36*
X32907D02*
Y14127D01*
X33788D01*
X33770Y14265D01*
X33667Y14512D01*
X33505Y14725D01*
X33292Y14887D01*
X33045Y14990D01*
X32907Y15008D01*
D02*
G37*
G36*
X37499Y9789D02*
X37344Y9769D01*
X37081Y9660D01*
X36856Y9487D01*
X36683Y9262D01*
X36574Y8999D01*
X36554Y8845D01*
X37499D01*
Y9789D01*
D02*
G37*
G36*
Y8591D02*
X36554D01*
X36574Y8436D01*
X36683Y8174D01*
X36856Y7948D01*
X37081Y7775D01*
X37344Y7667D01*
X37499Y7646D01*
Y8591D01*
D02*
G37*
G36*
X38697D02*
X37753D01*
Y7646D01*
X37907Y7667D01*
X38170Y7775D01*
X38395Y7948D01*
X38568Y8174D01*
X38677Y8436D01*
X38697Y8591D01*
D02*
G37*
%LPD*%
D10*
X34740Y34315D02*
X48000D01*
X29706Y29282D02*
X34740Y34315D01*
X53264D02*
Y36220D01*
X57000Y24540D02*
X58522D01*
X48000Y29000D02*
Y34315D01*
X53264D01*
X19540Y3000D02*
X25000D01*
X19540D02*
Y5080D01*
X18270Y6350D02*
X19540Y5080D01*
X8052Y6350D02*
X18270D01*
X6782Y7620D02*
X8052Y6350D01*
X5842Y10820D02*
X6782Y9881D01*
X5842Y10820D02*
Y22987D01*
X7620Y24765D02*
X15240D01*
Y32995D02*
X18288Y29947D01*
X53264Y36220D02*
X58522D01*
Y24540D02*
Y36220D01*
X6782Y7620D02*
Y9881D01*
X5842Y22987D02*
X7620Y24765D01*
X15240D02*
X18288Y27813D01*
Y29947D01*
X10275Y32995D02*
X15240D01*
X7270Y36000D02*
X10275Y32995D01*
D11*
X46324Y26359D02*
X46324Y26360D01*
X46013Y26049D02*
X46324Y26359D01*
X47360Y25324D01*
X46013Y26670D02*
X46324Y26359D01*
X37910Y19000D02*
X39130Y17780D01*
X32715Y25425D02*
X40925D01*
X31231D02*
X32715D01*
X17000Y1194D02*
X25734D01*
X50164Y25324D02*
X57000Y32160D01*
X47360Y25324D02*
X50164D01*
X44450Y30988D02*
X46013Y29425D01*
X29158Y7572D02*
X34818D01*
X35568Y6822D01*
X46398D02*
X48294Y8718D01*
X9250Y9250D02*
X10250D01*
X15000Y14000D01*
X26430Y12725D02*
Y14605D01*
X36590Y20320D02*
Y22976D01*
X42080Y30988D02*
X44450D01*
X38100Y24486D02*
X44450D01*
X46013Y26049D01*
X40374Y29282D02*
X42080Y30988D01*
X9666Y31064D02*
X14924D01*
X16706Y29282D01*
X26670Y6822D02*
X34068D01*
X34818Y6072D01*
X38768D02*
X41840Y3000D01*
X24130Y6072D02*
X33318D01*
X34068Y5322D01*
X36978D02*
X39300Y3000D01*
X33318Y4420D02*
X35340D01*
X22796Y5322D02*
X32416D01*
X36760Y3000D02*
X38084Y1676D01*
X56159D01*
X17540Y8622D02*
Y14000D01*
Y8622D02*
X21590Y4572D01*
X30996D02*
X32568Y3000D01*
X34867Y16993D02*
X37860Y14000D01*
X23890Y27940D02*
X26875Y30925D01*
X27925D01*
X34000Y37000D01*
X33089Y16231D02*
X35320Y14000D01*
X22860Y16231D02*
X33089D01*
X21350Y17741D02*
X22860Y16231D01*
X21350Y17741D02*
Y34290D01*
X31064Y35725D02*
Y37262D01*
X37860Y21620D02*
X39786Y23546D01*
X40400Y21620D02*
X41700Y20320D01*
X30270Y9000D02*
X32649Y11379D01*
X45399D01*
X4750Y2750D02*
X6306Y1194D01*
X17000D02*
Y3000D01*
X27540D02*
X30080D01*
X37626Y8718D02*
X39246Y10338D01*
X52178D02*
X57000Y15160D01*
X46763Y27762D02*
X50062D01*
X39040Y31750D02*
X45493D01*
X27374Y29282D02*
X30240Y26417D01*
X46324Y26360D02*
X47360Y25324D01*
X46013Y26670D02*
X46324Y26360D01*
X46013Y26049D02*
Y26670D01*
X36590Y20320D02*
X37910Y19000D01*
X30240Y26417D02*
X31231Y25425D01*
X6306Y1194D02*
X17000D01*
X37910Y19000D02*
X52000D01*
X35340Y4420D02*
X36760Y3000D01*
X32416Y5322D02*
X33318Y4420D01*
X20080Y8038D02*
X22796Y5322D01*
X20080Y8038D02*
Y14000D01*
X32568Y3000D02*
X34220D01*
X21590Y4572D02*
X30996D01*
X15000Y14000D02*
Y15265D01*
X25770D01*
X26430Y14605D01*
Y12725D02*
X39130D01*
Y17780D01*
X36590Y22976D02*
X38100Y24486D01*
X4730Y36000D02*
X9666Y31064D01*
X27217Y16993D02*
X34867D01*
X23890Y20320D02*
X27217Y16993D01*
X23890Y20320D02*
Y27940D01*
X32715Y25425D02*
X39040Y31750D01*
X45493D02*
X46763Y30480D01*
Y27762D02*
Y30480D01*
X50062Y27762D02*
X57000Y34700D01*
X30240Y21620D02*
Y26417D01*
X35568Y6822D02*
X46398D01*
X27730Y9000D02*
X29158Y7572D01*
X46013Y26670D02*
Y29425D01*
X34818Y6072D02*
X38768D01*
X25160Y8332D02*
X26670Y6822D01*
X25160Y8332D02*
Y14000D01*
X22620Y7582D02*
Y14000D01*
Y7582D02*
X24130Y6072D01*
X34068Y5322D02*
X36978D01*
X57000Y10080D02*
X58293Y8787D01*
Y3810D02*
Y8787D01*
X56159Y1676D02*
X58293Y3810D01*
X34322Y39218D02*
X36540Y37000D01*
X33020Y39218D02*
X34322D01*
X31064Y37262D02*
X33020Y39218D01*
X22785Y35725D02*
X31064D01*
X21350Y34290D02*
X22785Y35725D01*
X53466Y23546D02*
X57000Y27080D01*
X39786Y23546D02*
X53466D01*
X55320Y20320D02*
X57000Y22000D01*
X41700Y20320D02*
X55320D01*
X45399Y11379D02*
X48020Y14000D01*
X25734Y1194D02*
X27540Y3000D01*
X39246Y10338D02*
X52178D01*
X40925Y25425D02*
X44500Y29000D01*
D12*
X25000Y3000D02*
D03*
X27540D02*
D03*
X30080D02*
D03*
D13*
X57000Y5000D02*
D03*
D14*
Y7540D02*
D03*
Y10080D02*
D03*
Y12620D02*
D03*
Y15160D02*
D03*
Y17700D02*
D03*
X39300Y3000D02*
D03*
X41840D02*
D03*
X44380D02*
D03*
X46920D02*
D03*
X49460D02*
D03*
X36760D02*
D03*
X34220D02*
D03*
X24700Y37000D02*
D03*
X22160D02*
D03*
X19620D02*
D03*
X17080D02*
D03*
X14540D02*
D03*
X27240D02*
D03*
X29780D02*
D03*
X46700D02*
D03*
X44160D02*
D03*
X41620D02*
D03*
X39080D02*
D03*
X36540D02*
D03*
X49240D02*
D03*
X51780D02*
D03*
D15*
X57000Y22000D02*
D03*
D16*
Y24540D02*
D03*
Y27080D02*
D03*
Y29620D02*
D03*
Y32160D02*
D03*
Y34700D02*
D03*
X52000Y19000D02*
D03*
Y16460D02*
D03*
X15000Y14000D02*
D03*
X17540D02*
D03*
X20080D02*
D03*
X22620D02*
D03*
X25160D02*
D03*
X27700D02*
D03*
X30240D02*
D03*
X32780D02*
D03*
X35320D02*
D03*
X37860D02*
D03*
X40400D02*
D03*
X42940D02*
D03*
X45480D02*
D03*
X48020D02*
D03*
X15000Y21620D02*
D03*
X17540D02*
D03*
X20080D02*
D03*
X22620D02*
D03*
X25160D02*
D03*
X27700D02*
D03*
X30240D02*
D03*
X32780D02*
D03*
X35320D02*
D03*
X37860D02*
D03*
X40400D02*
D03*
X42940D02*
D03*
X45480D02*
D03*
X48020D02*
D03*
D17*
X52000Y3000D02*
D03*
X12000Y37000D02*
D03*
X34000D02*
D03*
D18*
X44500Y29000D02*
D03*
D19*
X48000D02*
D03*
D22*
X30270Y9000D02*
D03*
X27730D02*
D03*
X7270Y36000D02*
D03*
X4730D02*
D03*
D23*
X8000Y20540D02*
D03*
Y15460D02*
D03*
D24*
X27374Y29282D02*
D03*
X16706D02*
D03*
X40374D02*
D03*
X29706D02*
D03*
X37626Y8718D02*
D03*
X48294D02*
D03*
D25*
X19540Y3000D02*
D03*
X17000D02*
D03*
D26*
X14460D02*
D03*
D27*
X9250Y2750D02*
D03*
Y9250D02*
D03*
X4750Y2750D02*
D03*
Y9250D02*
D03*
D28*
X11500Y29000D02*
D03*
D29*
X9000D02*
D03*
X6500D02*
D03*
M02*
