G04 Layer_Color=20142*
%FSLAX43Y43*%
%MOMM*%
G71*
G01*
G75*
%ADD36C,2.203*%
%ADD37R,1.753X1.753*%
%ADD38C,1.753*%
%ADD39R,1.727X1.727*%
%ADD40C,1.727*%
%ADD41R,1.753X1.753*%
%ADD42C,1.676*%
%ADD43R,1.676X1.676*%
%ADD44R,1.803X2.203*%
%ADD45O,1.803X2.203*%
%ADD46C,1.803*%
%ADD47C,3.003*%
%ADD48C,1.853*%
%ADD49O,2.203X2.703*%
G04:AMPARAMS|DCode=50|XSize=2.203mm|YSize=2.703mm|CornerRadius=0.602mm|HoleSize=0mm|Usage=FLASHONLY|Rotation=0.000|XOffset=0mm|YOffset=0mm|HoleType=Round|Shape=RoundedRectangle|*
%AMROUNDEDRECTD50*
21,1,2.203,1.500,0,0,0.0*
21,1,1.000,2.703,0,0,0.0*
1,1,1.203,0.500,-0.750*
1,1,1.203,-0.500,-0.750*
1,1,1.203,-0.500,0.750*
1,1,1.203,0.500,0.750*
%
%ADD50ROUNDEDRECTD50*%
%ADD51C,1.854*%
%ADD52R,1.703X1.703*%
%ADD53C,1.703*%
D36*
X25000Y3000D02*
D03*
X27540D02*
D03*
X30080D02*
D03*
D37*
X57000Y5000D02*
D03*
D38*
Y7540D02*
D03*
Y10080D02*
D03*
Y12620D02*
D03*
Y15160D02*
D03*
Y17700D02*
D03*
X39300Y3000D02*
D03*
X41840D02*
D03*
X44380D02*
D03*
X46920D02*
D03*
X49460D02*
D03*
X36760D02*
D03*
X34220D02*
D03*
X24700Y37000D02*
D03*
X22160D02*
D03*
X19620D02*
D03*
X17080D02*
D03*
X14540D02*
D03*
X27240D02*
D03*
X29780D02*
D03*
X46700D02*
D03*
X44160D02*
D03*
X41620D02*
D03*
X39080D02*
D03*
X36540D02*
D03*
X49240D02*
D03*
X51780D02*
D03*
D39*
X57000Y22000D02*
D03*
D40*
Y24540D02*
D03*
Y27080D02*
D03*
Y29620D02*
D03*
Y32160D02*
D03*
Y34700D02*
D03*
X52000Y19000D02*
D03*
Y16460D02*
D03*
D41*
Y3000D02*
D03*
X12000Y37000D02*
D03*
X34000D02*
D03*
D42*
X44500Y29000D02*
D03*
D43*
X48000D02*
D03*
D44*
X15000Y14000D02*
D03*
D45*
X17540D02*
D03*
X20080D02*
D03*
X22620D02*
D03*
X25160D02*
D03*
X27700D02*
D03*
X30240D02*
D03*
X32780D02*
D03*
X35320D02*
D03*
X37860D02*
D03*
X40400D02*
D03*
X42940D02*
D03*
X45480D02*
D03*
X48020D02*
D03*
X15000Y21620D02*
D03*
X17540D02*
D03*
X20080D02*
D03*
X22620D02*
D03*
X25160D02*
D03*
X27700D02*
D03*
X30240D02*
D03*
X32780D02*
D03*
X35320D02*
D03*
X37860D02*
D03*
X40400D02*
D03*
X42940D02*
D03*
X45480D02*
D03*
X48020D02*
D03*
D46*
X30270Y9000D02*
D03*
X27730D02*
D03*
X7270Y36000D02*
D03*
X4730D02*
D03*
D47*
X8000Y20540D02*
D03*
Y15460D02*
D03*
D48*
X27374Y29282D02*
D03*
X16706D02*
D03*
X40374D02*
D03*
X29706D02*
D03*
X37626Y8718D02*
D03*
X48294D02*
D03*
D49*
X19540Y3000D02*
D03*
X17000D02*
D03*
D50*
X14460D02*
D03*
D51*
X9250Y2750D02*
D03*
Y9250D02*
D03*
X4750Y2750D02*
D03*
Y9250D02*
D03*
D52*
X11500Y29000D02*
D03*
D53*
X9000D02*
D03*
X6500D02*
D03*
M02*
