M48
;Layer_Color=6321
;FILE_FORMAT=4:3
METRIC,TZ
;TYPE=PLATED
T1F00S00C0.889
T2F00S00C0.900
T3F00S00C0.950
T4F00S00C1.000
T5F00S00C1.016
T6F00S00C1.020
T7F00S00C1.100
T8F00S00C1.400
%
T01
X52000Y16460
Y19000
T02
X44500Y29000
X48000
T03
X37626Y8718
X48294
X40374Y29282
X29706
X27374
X16706
T04
X4750Y2750
X9250
Y9250
X4750
X27730Y9000
X30270
X11500Y29000
X9000
X6500
X7270Y36000
X4730
T05
X57000Y22000
Y24540
Y27080
Y29620
Y32160
Y34700
T06
X25000Y3000
X27540
X30080
X34220
X36760
X39300
X41840
X44380
X46920
X49460
X52000
X57000Y5000
Y7540
Y10080
Y12620
Y15160
Y17700
X51780Y37000
X49240
X46700
X44160
X41620
X39080
X36540
X34000
X29780
X27240
X24700
X22160
X19620
X17080
X14540
X12000
T07
X14460Y3000
X17000
X19540
X20080Y14000
X17540
X15000
X22620
X25160
X27700
X30240
X32780
X35320
X37860
X40400
X42940
X45480
X48020
Y21620
X45480
X42940
X40400
X37860
X35320
X32780
X30240
X27700
X25160
X22620
X20080
X17540
X15000
T08
X8000Y15460
Y20540
M30
