G04 Layer_Physical_Order=1*
G04 Layer_Color=25308*
%FSLAX43Y43*%
%MOMM*%
G71*
G01*
G75*
%ADD10C,1.000*%
%ADD11C,0.500*%
%ADD12C,2.000*%
%ADD13R,1.550X1.550*%
%ADD14C,1.550*%
%ADD15R,1.524X1.524*%
%ADD16C,1.524*%
%ADD17R,1.550X1.550*%
%ADD18C,1.473*%
%ADD19R,1.473X1.473*%
%ADD20R,1.600X2.000*%
%ADD21O,1.600X2.000*%
%ADD22C,1.600*%
%ADD23C,2.800*%
%ADD24C,1.650*%
%ADD25O,2.000X2.500*%
G04:AMPARAMS|DCode=26|XSize=2mm|YSize=2.5mm|CornerRadius=0.5mm|HoleSize=0mm|Usage=FLASHONLY|Rotation=0.000|XOffset=0mm|YOffset=0mm|HoleType=Round|Shape=RoundedRectangle|*
%AMROUNDEDRECTD26*
21,1,2.000,1.500,0,0,0.0*
21,1,1.000,2.500,0,0,0.0*
1,1,1.000,0.500,-0.750*
1,1,1.000,-0.500,-0.750*
1,1,1.000,-0.500,0.750*
1,1,1.000,0.500,0.750*
%
%ADD26ROUNDEDRECTD26*%
%ADD27C,1.651*%
%ADD28R,1.500X1.500*%
%ADD29C,1.500*%
D10*
X35320Y18670D02*
Y21620D01*
X30240Y17882D02*
X35320Y18670D01*
X30240Y14000D02*
Y17882D01*
X25000Y9749D02*
X30240Y12700D01*
X25000Y3000D02*
Y9749D01*
X5842Y28342D02*
X6500Y29000D01*
X5842Y19050D02*
Y28342D01*
X9728Y18009D02*
X11227Y16510D01*
X5842Y19050D02*
X6883Y18009D01*
X9728D01*
X11227Y3000D02*
Y16510D01*
Y3000D02*
X14460D01*
X49570Y19863D02*
Y29000D01*
X48000D02*
X49570D01*
X35320Y19863D02*
X49570D01*
X8000Y20540D02*
Y28000D01*
X9000Y29000D01*
X57912Y23628D02*
X58547D01*
X57000Y12620D02*
X58547Y14167D01*
X30240Y12700D02*
Y14000D01*
X57000Y24540D02*
X57912Y23628D01*
X58547Y14167D02*
Y23628D01*
D11*
X27700Y12734D02*
Y14000D01*
X27296Y12734D02*
X27700D01*
X27059Y12497D02*
X27296Y12734D01*
X24130Y12497D02*
X27059D01*
X32780Y5700D02*
Y11498D01*
X22620Y21620D02*
Y34920D01*
X24700Y37000D01*
X4750Y9250D02*
Y18710D01*
Y29750D01*
X20080Y21620D02*
Y34920D01*
X22160Y37000D01*
X48020Y21620D02*
Y24613D01*
X46660Y25973D02*
X48020Y24613D01*
X46660Y25973D02*
Y34420D01*
X49240Y37000D01*
X45480Y9520D02*
X52000Y3000D01*
X45480Y9520D02*
Y14000D01*
X23495Y11862D02*
X24130Y12497D01*
X23495Y2134D02*
Y11862D01*
X24130Y1499D02*
X42879D01*
X17540Y21620D02*
Y24308D01*
X15265Y26582D02*
Y32645D01*
X57000Y29620D02*
X58268Y30888D01*
Y35560D01*
X45438Y38278D02*
X55550D01*
X45480Y21620D02*
Y24130D01*
X43155Y26455D02*
Y33455D01*
X55728Y33428D02*
X57000Y34700D01*
X55728Y18972D02*
Y33428D01*
Y18972D02*
X57000Y17700D01*
X52000Y10000D02*
Y16460D01*
Y10000D02*
X57000Y5000D01*
X31902Y32551D02*
Y37490D01*
X31115Y38278D02*
X31902Y37490D01*
X14540Y37000D02*
X15818Y38278D01*
X9250Y2750D02*
Y9250D01*
X42940Y9520D02*
Y14000D01*
Y9520D02*
X49460Y3000D01*
X40400Y9520D02*
Y14000D01*
Y9520D02*
X46920Y3000D01*
X42879Y1499D02*
X44380Y3000D01*
X23495Y2134D02*
X24130Y1499D01*
X17540Y9663D02*
Y14000D01*
Y9663D02*
X21869Y5334D01*
Y1727D02*
Y5334D01*
Y1727D02*
X22860Y737D01*
X56490D01*
X58293Y2540D01*
Y6247D01*
X57000Y7540D02*
X58293Y6247D01*
X15000Y21620D02*
Y23379D01*
X14503Y23876D02*
X15000Y23379D01*
X14503Y23876D02*
Y34423D01*
X17080Y37000D01*
X15265Y32645D02*
X19620Y37000D01*
X15265Y26582D02*
X17540Y24308D01*
X25160Y21620D02*
Y25044D01*
X25933Y25818D01*
Y35693D01*
X27240Y37000D01*
X27700Y21620D02*
Y25312D01*
X31039Y28651D01*
Y35741D01*
X29780Y37000D02*
X31039Y35741D01*
X37860Y21620D02*
Y35780D01*
X39080Y37000D01*
X40400Y21620D02*
Y24714D01*
X38938Y26176D02*
X40400Y24714D01*
X38938Y26176D02*
Y34318D01*
X41620Y37000D01*
X42940Y21620D02*
Y25030D01*
X42393Y25578D02*
X42940Y25030D01*
X42393Y25578D02*
Y35233D01*
X44160Y37000D01*
X45438Y38278D01*
X55550D02*
X58268Y35560D01*
X43155Y33455D02*
X46700Y37000D01*
X43155Y26455D02*
X45480Y24130D01*
X48020Y14000D02*
Y15311D01*
X50570Y17861D01*
Y35790D01*
X51780Y37000D01*
X4750Y2750D02*
Y9250D01*
Y18710D02*
X8000Y15460D01*
X4750Y29750D02*
X12000Y37000D01*
X30080Y3000D02*
X32780Y5700D01*
X35560Y8718D02*
X37626D01*
X32780Y11498D02*
X35560Y8718D01*
X32780Y11498D02*
Y14000D01*
X57000Y15160D02*
Y17700D01*
X15818Y38278D02*
X31115D01*
X31902Y32551D02*
X32780Y31674D01*
Y21620D02*
Y31674D01*
D12*
X25000Y3000D02*
D03*
X27540D02*
D03*
X30080D02*
D03*
D13*
X57000Y5000D02*
D03*
D14*
Y7540D02*
D03*
Y10080D02*
D03*
Y12620D02*
D03*
Y15160D02*
D03*
Y17700D02*
D03*
X39300Y3000D02*
D03*
X41840D02*
D03*
X44380D02*
D03*
X46920D02*
D03*
X49460D02*
D03*
X36760D02*
D03*
X34220D02*
D03*
X24700Y37000D02*
D03*
X22160D02*
D03*
X19620D02*
D03*
X17080D02*
D03*
X14540D02*
D03*
X27240D02*
D03*
X29780D02*
D03*
X46700D02*
D03*
X44160D02*
D03*
X41620D02*
D03*
X39080D02*
D03*
X36540D02*
D03*
X49240D02*
D03*
X51780D02*
D03*
D15*
X57000Y22000D02*
D03*
D16*
Y24540D02*
D03*
Y27080D02*
D03*
Y29620D02*
D03*
Y32160D02*
D03*
Y34700D02*
D03*
X52000Y19000D02*
D03*
Y16460D02*
D03*
D17*
Y3000D02*
D03*
X12000Y37000D02*
D03*
X34000D02*
D03*
D18*
X44500Y29000D02*
D03*
D19*
X48000D02*
D03*
D20*
X15000Y14000D02*
D03*
D21*
X17540D02*
D03*
X20080D02*
D03*
X22620D02*
D03*
X25160D02*
D03*
X27700D02*
D03*
X30240D02*
D03*
X32780D02*
D03*
X35320D02*
D03*
X37860D02*
D03*
X40400D02*
D03*
X42940D02*
D03*
X45480D02*
D03*
X48020D02*
D03*
X15000Y21620D02*
D03*
X17540D02*
D03*
X20080D02*
D03*
X22620D02*
D03*
X25160D02*
D03*
X27700D02*
D03*
X30240D02*
D03*
X32780D02*
D03*
X35320D02*
D03*
X37860D02*
D03*
X40400D02*
D03*
X42940D02*
D03*
X45480D02*
D03*
X48020D02*
D03*
D22*
X30270Y9000D02*
D03*
X27730D02*
D03*
X7270Y36000D02*
D03*
X4730D02*
D03*
D23*
X8000Y20540D02*
D03*
Y15460D02*
D03*
D24*
X27374Y29282D02*
D03*
X16706D02*
D03*
X40374D02*
D03*
X29706D02*
D03*
X37626Y8718D02*
D03*
X48294D02*
D03*
D25*
X19540Y3000D02*
D03*
X17000D02*
D03*
D26*
X14460D02*
D03*
D27*
X9250Y2750D02*
D03*
Y9250D02*
D03*
X4750Y2750D02*
D03*
Y9250D02*
D03*
D28*
X11500Y29000D02*
D03*
D29*
X9000D02*
D03*
X6500D02*
D03*
M02*
